Coordinates
version=1
nRows=24
nColumns=24
inDegrees=yes

Units are S.I. units (second, meters, Newtons, ...)
Angles are in degrees.

endheader
time	pelvis_tilt	pelvis_list	pelvis_rotation	pelvis_tx	pelvis_ty	pelvis_tz	hip_flexion_r	hip_adduction_r	hip_rotation_r	knee_angle_r	ankle_angle_r	subtalar_angle_r	mtp_angle_r	hip_flexion_l	hip_adduction_l	hip_rotation_l	knee_angle_l	ankle_angle_l	subtalar_angle_l	mtp_angle_l	lumbar_extension	lumbar_bending	lumbar_rotation
      0.66183333	     -2.35184529	      0.05792072	     -1.87503156	     -0.47332499	      1.06170236	      0.30206354	     14.88822429	      4.10913517	     -2.10064305	    -16.40500821	      4.06134786	     -4.85756422	      2.44566426	     18.67623682	     -0.33316164	     -3.37112628	    -64.25480522	      5.31490249	     -1.20001391	      5.87984996	      2.00709633	      3.46272716	      0.61812617
      0.66600000	     -2.38601403	      0.16781016	     -1.89901462	     -0.46792153	      1.06227267	      0.30246686	     14.57433218	      4.05992100	     -1.89334047	    -16.31940759	      4.10923546	     -5.15550988	      2.46309234	     19.26796556	     -0.24215303	     -3.34395885	    -63.96995862	      5.67606312	     -1.66406846	      5.90420508	      2.01185053	      3.30082774	      0.71950616
      0.67016667	     -2.40606623	      0.29095871	     -1.91436703	     -0.46253979	      1.06285070	      0.30274881	     14.24926803	      3.97805835	     -1.70726774	    -16.25581341	      4.15178827	     -5.45403005	      2.48052178	     19.82595440	     -0.11996388	     -3.29951247	    -63.59638496	      5.98350605	     -2.13923961	      5.92461260	      2.02852123	      3.12770725	      0.82197028
      0.67433333	     -2.41227050	      0.40691984	     -1.92724880	     -0.45720983	      1.06342400	      0.30305534	     13.91211679	      3.90580050	     -1.51849350	    -16.18828685	      4.19624414	     -5.74036585	      2.49887836	     20.35766468	     -0.00895631	     -3.26705241	    -63.14259647	      6.24228262	     -2.64673171	      5.94113518	      2.02537703	      2.97526915	      0.91660824
      0.67850000	     -2.42592390	      0.53277097	     -1.96362348	     -0.45191555	      1.06396051	      0.30330810	     13.59328515	      3.81854971	     -1.32277233	    -16.14039044	      4.22560623	     -6.08746589	      2.52667760	     20.87758711	      0.11552966	     -3.26466246	    -62.60391503	      6.41231155	     -3.28210736	      5.95876598	      1.97926836	      2.87390678	      1.01974697
      0.68266667	     -2.42572953	      0.62162099	     -1.89947339	     -0.44659137	      1.06450459	      0.30342980	     13.22958695	      3.74475332	     -1.18269624	    -16.04261450	      4.26493997	     -6.16100025	      2.53254224	     21.37216164	      0.23503313	     -3.13114671	    -61.99440613	      6.53453244	     -3.46803316	      5.96097966	      1.94772969	      2.78010151	      1.05375620
      0.68683333	     -2.42886188	      0.71418854	     -1.93486134	     -0.44121075	      1.06504694	      0.30384308	     12.87226734	      3.70881180	     -0.95078050	    -15.94486344	      4.33688528	     -6.58752432	      2.57171785	     21.83131202	      0.30181507	     -3.17847752	    -61.29054835	      6.63282176	     -4.53349000	      5.96365524	      1.93926961	      2.59314771	      1.18586679
      0.69100000	     -2.40565302	      0.80930651	     -1.88747464	     -0.43575059	      1.06562935	      0.30394807	     12.47717200	      3.62591578	     -0.90161664	    -15.84619895	      4.43853059	     -6.74369965	      2.58493893	     22.23449082	      0.42719503	     -3.10072207	    -60.49548945	      6.82714560	     -4.91984067	      5.96325683	      1.97539299	      2.42287826	      1.24536536
      0.69516667	     -2.38372677	      0.88783764	     -1.85657734	     -0.43036127	      1.06616335	      0.30413110	     12.07915018	      3.56950638	     -0.76329915	    -15.73483868	      4.56958004	     -6.95382046	      2.60006021	     22.62437608	      0.52051269	     -3.05816580	    -59.63864886	      6.99322739	     -5.55610401	      5.95358295	      1.95626137	      2.29407734	      1.29158964
      0.69933333	     -2.39469317	      0.96346412	     -1.85495948	     -0.42508795	      1.06659433	      0.30429286	     11.73836713	      3.51715994	     -0.61018216	    -15.65429911	      4.65581021	     -7.20172118	      2.62647815	     23.03666962	      0.60382071	     -3.05816841	    -58.70263636	      6.88731510	     -6.45051138	      5.92526313	      1.80870126	      2.20064285	      1.33842208
      0.70350000	     -2.37896300	      1.01825436	     -1.77876839	     -0.41958812	      1.06710226	      0.30436974	     11.32396146	      3.47164366	     -0.55396684	    -15.50868105	      4.75041523	     -7.31008923	      2.63625907	     23.37417026	      0.69145467	     -2.97149577	    -57.67471210	      6.96838752	     -6.80332005	      5.91190366	      1.90299994	      2.13085653	      1.37495424
      0.70766667	     -2.37007138	      1.07949437	     -1.75549006	     -0.41429601	      1.06751555	      0.30448435	     10.94724306	      3.42619984	     -0.42910148	    -15.40592003	      4.90379121	     -7.53871254	      2.65995139	     23.71269123	      0.76866747	     -2.96665898	    -56.58314469	      6.86231301	     -7.78504749	      5.86274121	      1.74818011	      2.01129932	      1.40730244
      0.71183333	     -2.36401420	      1.11410932	     -1.66978646	     -0.40877741	      1.06795606	      0.30450010	     10.53384666	      3.39622768	     -0.39176731	    -15.24637602	      4.99580148	     -7.62740374	      2.66753288	     24.00645795	      0.84202065	     -2.88208420	    -55.40383971	      6.89507553	     -8.09531483	      5.84224284	      1.84291547	      1.99291239	      1.43018770
      0.71600000	     -2.34917229	      1.14709504	     -1.60054116	     -0.40329705	      1.06837734	      0.30452166	     10.11211764	      3.36932977	     -0.33786157	    -15.08768237	      5.15481885	     -7.79047590	      2.67621827	     24.26365476	      0.90950570	     -2.83128037	    -54.14605128	      6.88566723	     -8.70159307	      5.80535980	      1.87311748	      1.92111647	      1.45206573
      0.72016667	     -2.35288911	      1.16900391	     -1.55223235	     -0.39797896	      1.06869114	      0.30453174	      9.72873636	      3.35581936	     -0.23760961	    -14.95044689	      5.29099423	     -7.96418886	      2.69226860	     24.53333723	      0.95929270	     -2.81224554	    -52.82420598	      6.55844744	     -9.69738673	      5.71991356	      1.68783592	      1.84162264	      1.46181441
      0.72433333	     -2.34589259	      1.17809946	     -1.45529431	     -0.39249081	      1.06903040	      0.30446129	      9.30422121	      3.34656812	     -0.21708972	    -14.77065635	      5.41305426	     -8.05980789	      2.70444416	     24.74581836	      1.01517151	     -2.74133228	    -51.42254081	      6.42969331	    -10.21285543	      5.64834781	      1.68351318	      1.80351130	      1.48188928
      0.72850000	     -2.37546187	      1.17808793	     -1.37766013	     -0.38697135	      1.06928312	      0.30440995	      8.91871040	      3.35110877	     -0.18955196	    -14.59341231	      5.51459550	     -8.13539496	      2.70783114	     24.96297911	      1.05216684	     -2.69215210	    -49.95714126	      6.42888286	    -10.44378915	      5.61569034	      1.77692979	      1.88501926	      1.47924590
      0.73266667	     -2.40315490	      1.17593823	     -1.28411491	     -0.38140490	      1.06951889	      0.30433408	      8.51623412	      3.35722997	     -0.16302522	    -14.39128522	      5.65909442	     -8.25693139	      2.71010564	     25.14463352	      1.09293629	     -2.64259924	    -48.41202762	      6.34014012	    -10.80560001	      5.57160544	      1.84774909	      1.87916274	      1.48743442
      0.73683333	     -2.38585408	      1.16641464	     -1.20651832	     -0.37600585	      1.06975354	      0.30424013	      8.08102591	      3.36979811	     -0.09149224	    -14.20884681	      5.82463780	     -8.42735842	      2.71321824	     25.26337841	      1.12590496	     -2.60724742	    -46.79218434	      5.91046455	    -11.59284060	      5.45761421	      1.69323478	      1.80043709	      1.48726468
      0.74100000	     -2.46875292	      1.13017348	     -1.11244895	     -0.37051338	      1.06979906	      0.30402496	      7.74809335	      3.40314061	     -0.05910496	    -14.02664460	      5.89165840	     -8.47726750	      2.71303155	     25.45626888	      1.14447992	     -2.52105027	    -45.14164030	      5.92838142	    -11.67716803	      5.43329640	      1.76337673	      1.94058311	      1.47423810
      0.74516667	     -2.41904668	      1.11747268	     -1.04206008	     -0.36495054	      1.07006568	      0.30394015	      7.25746986	      3.42230848	     -0.03533214	    -13.80836212	      6.04293765	     -8.63884511	      2.70937711	     25.45916387	      1.16932453	     -2.53663938	    -43.37440306	      5.48821021	    -12.25067290	      5.28759721	      1.69993074	      1.93195918	      1.47663884
      0.74933333	     -2.49452743	      1.06634073	     -0.92055460	     -0.35934299	      1.07006124	      0.30373527	      6.89401903	      3.47716659	     -0.03832599	    -13.58476048	      6.14202984	     -8.71052679	      2.70759787	     25.58037116	      1.17718671	     -2.46824109	    -41.60374410	      5.46934766	    -12.28309597	      5.25457214	      1.83841325	      2.02573375	      1.47803586
      0.75350000	     -2.52065296	      1.02869172	     -0.82576452	     -0.35374256	      1.07010774	      0.30357161	      6.47840527	      3.52143981	      0.00566374	    -13.36910374	      6.30547779	     -8.86100405	      2.70116286	     25.61147084	      1.18873616	     -2.42924913	    -39.74750008	      5.14340076	    -12.44122622	      5.16153293	      1.83781329	      1.98328587	      1.48956080
      0.75766667	     -2.59176740	      0.96221201	     -0.73820961	     -0.34813324	      1.07003566	      0.30333184	      6.11906788	      3.59306334	      0.00998059	    -13.16332862	      6.39487585	     -8.94882795	      2.69743894	     25.66900110	      1.17609695	     -2.40042115	    -37.87521738	      5.09093940	    -12.45507953	      5.12533229	      1.96651939	      2.16623977	      1.47388117
